<svg width="32" height="32" viewBox="0 0 100 120" xmlns="http://www.w3.org/2000/svg">
   <path d="M48 25C35 25 22 35 18 55C17 65 20 75 25 82L48 95V25Z" fill="#1F4788"/>
   <path d="M46 32L22 45M46 42L25 55M46 52L28 65M46 62L32 75" stroke="white" stroke-width="1.5" stroke-linecap="round"/>

   <path d="M52 35C65 35 78 45 82 65C83 75 80 85 75 92L52 105V35Z" fill="white" stroke="#1F4788" stroke-width="1"/>
   <path d="M54 42L78 55M54 52L75 65M54 62L72 75M54 72L68 85" stroke="#1F4788" stroke-width="1.5" stroke-linecap="round"/>

   <path d="M15 15H85V85L50 110L15 85V15Z" fill="none" stroke="#1F4788" stroke-width="3" stroke-linejoin="round"/>
   <path d="M15 50H85M50 15V110" stroke="#1F4788" stroke-width="1.5"/>
</svg>
